HIERARCHY
ROOT Hips
{
	OFFSET -3.958830 18.904000 13.208200
	CHANNELS 6 Xposition Yposition Zposition Zrotation Yrotation Xrotation 
	JOINT LHipJoint
	{
		OFFSET 0.000000 0.000000 0.000000
		CHANNELS 3 Zrotation Yrotation Xrotation
		JOINT LeftUpLeg
		{
			OFFSET 1.800000 -1.400000 0.085000
			CHANNELS 3 Zrotation Yrotation Xrotation
			JOINT LeftLeg
			{
				OFFSET 2.215000 -6.000000 0.000000
				CHANNELS 3 Zrotation Yrotation Xrotation
				JOINT LeftFoot
				{
					OFFSET 2.500000 -6.900000 0.000000
					CHANNELS 3 Zrotation Yrotation Xrotation
					JOINT LeftToeBase
					{
						OFFSET 0.200000 -0.500000 1.950000
						CHANNELS 3 Zrotation Yrotation Xrotation
						End Site
						{
							OFFSET 0.000000 0.000000 0.000000
						}
					}
				}
			}
		}
	}
	JOINT RHipJoint
	{
		OFFSET 0.000000 0.000000 0.000000
		CHANNELS 3 Zrotation Yrotation Xrotation
		JOINT RightUpLeg
		{
			OFFSET -1.800000 -1.400000 0.085000
			CHANNELS 3 Zrotation Yrotation Xrotation
			JOINT RightLeg
			{
				OFFSET -2.215000 -6.000000 0.000000
				CHANNELS 3 Zrotation Yrotation Xrotation
				JOINT RightFoot
				{
					OFFSET -2.500000 -6.900000 0.000000
					CHANNELS 3 Zrotation Yrotation Xrotation
					JOINT RightToeBase
					{
						OFFSET -0.200000 -0.500000 1.950000
						CHANNELS 3 Zrotation Yrotation Xrotation
						End Site
						{
							OFFSET 0.000000 0.000000 0.000000
						}
					}
				}
			}
		}
	}
	JOINT LowerBack
	{
		OFFSET 0.000000 0.000000 0.000000
		CHANNELS 3 Zrotation Yrotation Xrotation
		JOINT Spine
		{
			OFFSET -0.087000 1.940000 -0.288900
			CHANNELS 3 Zrotation Yrotation Xrotation
			JOINT Spine1
			{
				OFFSET 0.000000 1.950000 0.060000
				CHANNELS 3 Zrotation Yrotation Xrotation
				JOINT Neck
				{
					OFFSET 0.000000 0.000000 0.000000
					CHANNELS 3 Zrotation Yrotation Xrotation
					JOINT Neck1
					{
						OFFSET 0.000000 1.600000 0.340000
						CHANNELS 3 Zrotation Yrotation Xrotation
						JOINT Head
						{
							OFFSET 0.000000 1.667000 -0.240000
							CHANNELS 3 Zrotation Yrotation Xrotation
							End Site
							{
								OFFSET 0.000000 0.000000 0.000000
							}
						}
					}
				}
				JOINT LeftShoulder
				{
					OFFSET 0.000000 0.000000 0.000000
					CHANNELS 3 Zrotation Yrotation Xrotation
					JOINT LeftArm
					{
						OFFSET 2.700000 1.550000 -0.730000
						CHANNELS 3 Zrotation Yrotation Xrotation
						JOINT LeftForeArm
						{
							OFFSET 5.450000 0.000000 0.000000
							CHANNELS 3 Zrotation Yrotation Xrotation
							JOINT LeftHand
							{
								OFFSET 3.450000 0.000000 0.000000
								CHANNELS 3 Zrotation Yrotation Xrotation
								JOINT LeftHandIndex1
								{
									OFFSET 0.750000 0.000000 0.000000
									CHANNELS 3 Zrotation Yrotation Xrotation
									End Site
									{
										OFFSET 0.000000 0.000000 0.000000
									}
								}
							}
						}
					}
				}
				JOINT RightShoulder
				{
					OFFSET 0.000000 0.000000 0.000000
					CHANNELS 3 Zrotation Yrotation Xrotation
					JOINT RightArm
					{
						OFFSET -2.700000 1.550000 -0.730000
						CHANNELS 3 Zrotation Yrotation Xrotation
						JOINT RightForeArm
						{
							OFFSET -5.450000 0.000000 0.000000
							CHANNELS 3 Zrotation Yrotation Xrotation
							JOINT RightHand
							{
								OFFSET -3.450000 0.000000 0.000000
								CHANNELS 3 Zrotation Yrotation Xrotation
								JOINT RightHandIndex1
								{
									OFFSET -0.750000 0.000000 0.000000
									CHANNELS 3 Zrotation Yrotation Xrotation
									End Site
									{
										OFFSET 0.000000 0.000000 0.000000
									}
								}
							}
						}
					}
				}
			}
		}
	}
}
MOTION
Frames: 7
Frame Time: 0.016667
0.998800 17.047030 -2.507840 -8.565911 -4.320922 -5.169796 -15.510554 12.693779 2.256398 16.966799 -3.406332 -14.983367 -10.018330 12.600217 34.458132 -0.557106 8.381517 1.839631 0.444490 -0.043570 0.210640 18.378735 -7.304690 5.814076 -14.219514 10.744491 -59.305055 3.094680 -26.140808 88.730003 -3.069304 -15.572056 -0.118698 0.169500 0.592460 0.122020 -3.205293 -5.045347 -8.982441 11.040134 -8.483870 34.745515 0.381677 -5.280785 0.825452 1.104426 -8.284894 -6.642850 -16.207858 7.886943 25.024563 -2.488090 3.982020 -21.722070 -22.980695 2.431716 0.700027 -31.999945 4.265501 -6.637780 140.849220 -59.114065 -129.390767 -3.963186 2.647886 1.046300 0.212130 -0.193090 0.325930 21.239144 1.815092 3.657040 26.050797 -10.652176 -10.737933 20.750620 47.739058 7.353932 1.281223 -1.559979 -0.657060 0.702420 0.165580 -0.415380 
1.049930 16.958780 -2.539860 -8.886043 -5.291488 -6.545210 -15.546585 12.701375 2.426496 17.715589 -3.816193 -15.579829 -10.412202 13.812189 37.921685 -0.355363 9.068690 1.593215 0.400950 -0.102880 0.197600 18.345421 -7.236051 5.709778 -13.405810 11.048471 -58.764280 1.181175 -24.756551 90.039566 -3.056732 -15.448346 -0.086222 0.102720 0.560830 0.123600 -3.115657 -5.258439 -9.057488 10.966663 -8.834980 38.037259 0.536452 -5.432775 -0.386123 1.436804 -8.762101 -7.310729 -17.349520 8.143192 25.487675 -2.530760 3.878130 -22.642190 -23.207138 1.292555 0.919001 -31.445742 4.659213 -7.435043 135.946168 -63.300629 -126.517284 -3.946432 2.568047 1.069740 0.169550 -0.167510 0.304080 20.887345 3.383702 4.471852 27.267702 -10.958325 -11.804602 20.616297 52.235376 8.109733 1.316654 -1.553337 -0.638370 0.678000 0.178010 -0.410790 
1.091230 16.886550 -2.548210 -9.174560 -6.674067 -7.663042 -15.557499 12.704026 2.567554 18.608619 -3.931589 -15.407219 -11.198466 14.943130 39.994583 -0.163668 9.559770 1.416475 0.409240 -0.075290 0.186340 18.328102 -7.247849 5.571360 -12.170432 11.630707 -57.405923 -0.089965 -23.229142 90.213474 -3.034430 -15.195362 -0.015926 0.075690 0.518260 0.124500 -3.088316 -5.310883 -9.089046 11.068127 -9.040726 40.166348 0.439302 -5.458837 -1.139552 1.624110 -9.069716 -7.808449 -18.249854 8.943178 26.210040 -1.939430 4.080350 -23.863000 -23.191673 0.491231 1.164690 -31.293321 4.593455 -7.650226 128.799049 -67.769786 -121.481100 -3.928622 2.425323 1.077650 0.120990 -0.126540 0.309970 20.538177 4.507700 4.928165 28.962641 -10.599651 -12.831112 20.647648 56.371180 8.775069 1.350155 -1.561337 -0.590360 0.650520 0.157630 -0.386120 
1.123930 16.835830 -2.551860 -8.992437 -8.219151 -8.589593 -15.582199 12.750517 2.724155 19.216023 -3.934171 -14.814556 -12.580168 16.052759 40.940201 -0.021638 9.939987 1.262191 0.454400 -0.031540 0.208010 18.289384 -7.277115 5.396216 -10.638487 12.243002 -55.476138 -1.559345 -20.940983 89.556441 -2.964930 -14.747758 0.080000 0.069760 0.442090 0.150060 -3.007537 -5.427435 -9.110721 10.495567 -8.859538 41.705685 0.643314 -5.363261 -1.590167 1.791715 -9.217952 -8.332103 -18.901922 9.856095 27.042076 -2.041850 4.514420 -25.288690 -23.610493 -0.610989 1.585391 -30.980491 4.487807 -7.184532 116.899395 -72.553520 -111.728270 -3.980603 1.852830 1.107920 0.066380 -0.073700 0.315050 20.669962 5.978131 5.405548 30.414012 -10.002802 -13.860409 21.421746 60.483027 9.634289 1.365707 -1.602568 -0.538560 0.588730 0.126590 -0.385820 
1.141610 16.774910 -2.548370 -8.408294 -9.280774 -8.513516 -15.608241 12.758203 2.871860 19.136498 -4.052442 -15.121870 -13.644270 16.900924 41.793554 0.146986 10.212985 1.174380 0.454260 -0.005370 0.195090 18.261943 -7.278679 5.270640 -9.506097 12.525334 -54.305788 -2.868020 -18.848294 88.652570 -2.878041 -14.326000 0.186220 0.049190 0.418980 0.182630 -2.938500 -5.546395 -9.149074 9.640161 -8.468293 40.992954 1.172497 -5.284500 -2.412825 1.630848 -8.798331 -8.224682 -18.586577 10.534261 29.007500 -2.870520 5.260700 -24.295670 -22.488653 -2.380137 0.143021 -31.746741 5.518456 -15.221512 64.329478 -87.565997 -62.852716 -3.281771 0.745215 1.072860 0.067680 -0.033910 0.330540 19.840511 6.994576 6.193130 32.965592 -9.022466 -14.422216 23.478678 64.054885 11.028941 1.420588 -1.627396 -0.477790 0.545210 0.101100 -0.353330 
1.157440 16.722190 -2.524210 -7.751524 -10.233233 -7.976506 -15.611419 12.720870 3.041872 18.946678 -4.196974 -15.580633 -15.019750 17.746634 42.227233 0.254078 10.464678 1.090727 0.451470 0.007400 0.185920 18.247832 -7.371235 5.100660 -8.394249 12.550400 -52.621675 -3.706391 -16.958596 86.756127 -2.750818 -13.819146 0.311991 0.042740 0.411210 0.193340 -2.918176 -5.478944 -9.163578 9.112838 -8.406691 38.909655 1.046311 -5.582166 -1.588717 1.824856 -8.437479 -8.917841 -18.322349 11.486383 30.271522 -3.626140 6.065020 -23.082170 -22.267700 -3.430115 1.324093 -32.097263 4.476610 -12.882449 15.402961 -79.848174 -17.839764 -3.426382 2.690260 1.051680 0.078020 -0.021880 0.334880 19.411093 7.876196 6.260827 35.470683 -7.168498 -14.797738 28.322532 68.139614 14.258276 1.448586 -1.645243 -0.452780 0.527000 0.093980 -0.340720 
1.158600 16.686520 -2.483330 -6.987523 -11.190083 -7.084652 -15.598523 12.687503 3.179461 18.578091 -4.204572 -15.984452 -16.355461 18.305245 41.865124 0.290095 10.593084 1.049327 0.466470 0.023390 0.210600 18.244123 -7.519550 4.917113 -7.494065 12.462385 -50.580466 -3.959993 -15.429633 84.145518 -2.612045 -13.277414 0.434152 0.057250 0.415160 0.216580 -2.933043 -5.315922 -9.137060 8.706345 -8.208714 35.692619 0.814705 -5.782178 -0.688660 1.696626 -7.797305 -8.956620 -17.126623 12.194583 31.250971 -4.694560 7.064130 -21.875150 -22.477532 -4.354706 1.562630 -31.807047 3.282986 -11.475886 1.223324 -68.849965 -5.075744 -3.490201 2.813855 1.035190 0.106460 -0.014890 0.337630 19.867198 8.228850 6.127141 36.870431 -4.924285 -14.126218 35.590996 71.046202 19.052458 1.495666 -1.667868 -0.443620 0.520140 0.086660 -0.344750 
